<svg width="76" height="72" viewBox="0 0 76 72" fill="none" xmlns="http://www.w3.org/2000/svg">
<path d="M50.0009 45.1459C45.0427 45.1459 41 41.0829 41 36.073C41 31.075 45.0308 27 50.0009 27C54.971 27 59.0017 31.0631 59.0017 36.073C59.0017 41.0829 54.9591 45.1459 50.0009 45.1459ZM50.0009 29.1933C46.2317 29.1933 43.164 32.2856 43.164 36.0849C43.164 39.8843 46.2317 42.9766 50.0009 42.9766C53.7701 42.9766 56.8377 39.8843 56.8377 36.0849C56.8377 32.2856 53.7701 29.1933 50.0009 29.1933Z" fill="white"/>
<path d="M69 43C65.1365 43 62 39.8635 62 36C62 32.1365 65.1469 29 69 29C72.8635 29 76 32.1365 76 36C76.0104 39.8635 72.8635 43 69 43ZM69 30.8798C66.1751 30.8798 63.8798 33.1751 63.8798 36C63.8798 38.8249 66.1751 41.1202 69 41.1202C71.8249 41.1202 74.1202 38.8249 74.1202 36C74.1202 33.1751 71.8249 30.8798 69 30.8798Z" fill="white"/>
<path d="M26.403 46.4476C31.8562 46.4476 36.2768 41.9916 36.2768 36.4948C36.2768 30.998 31.8562 26.542 26.403 26.542C20.9499 26.542 16.5293 30.998 16.5293 36.4948C16.5293 41.9916 20.9499 46.4476 26.403 46.4476Z" fill="white"/>
<path d="M26.4033 47.9892C20.111 47.9892 15 42.8374 15 36.4946C15 30.1519 20.111 25 26.4033 25C32.6956 25 37.8066 30.1519 37.8066 36.4946C37.8066 42.8248 32.6832 47.9892 26.4033 47.9892ZM26.4033 28.0962C21.8146 28.0962 18.0716 31.8692 18.0716 36.4946C18.0716 41.1201 21.8146 44.8931 26.4033 44.8931C30.992 44.8931 34.7351 41.1201 34.7351 36.4946C34.7351 31.8567 30.992 28.0962 26.4033 28.0962Z" fill="white"/>
<path fill-rule="evenodd" clip-rule="evenodd" d="M49.9402 2.79842C46.507 1.63241 42.8274 1 39 1C20.2223 1 5 16.2223 5 35C5 53.7777 20.2223 69 39 69C50.6688 69 60.9646 63.1218 67.0878 54.165C60.8401 64.8344 49.2569 72 36 72C16.1177 72 0 55.8823 0 36C0 16.1177 16.1177 0 36 0C40.9426 0 45.6526 0.996069 49.9402 2.79842Z" fill="white"/>
</svg>
