<svg width="163" height="160" viewBox="0 0 163 160" fill="none" xmlns="http://www.w3.org/2000/svg">
<path d="M84.962 92.5191C80.1428 92.5191 76.105 88.9307 75.5189 84.168L70.309 43.5215C69.5275 37.1929 72.7837 31.1253 78.5146 28.3198C82.5524 26.3625 87.3064 26.3625 91.4092 28.3198C97.1402 31.06 100.396 37.1929 99.615 43.5215L94.405 84.168C93.8189 88.9959 89.7812 92.5191 84.962 92.5191Z" stroke="white" stroke-width="4" stroke-miterlimit="10"/>
<path d="M96.4905 117.377C96.4905 123.706 91.3457 128.86 85.0286 128.86C78.7115 128.86 73.5667 123.706 73.5667 117.377C73.5667 111.048 78.7115 105.894 85.0286 105.894C91.3457 105.894 96.4905 111.048 96.4905 117.377Z" stroke="white" stroke-width="4" stroke-miterlimit="10"/>
<path d="M2 157.109L6.81923 156.261C20.1698 153.978 32.8039 148.563 43.6797 140.407C56.4441 148.823 72.0089 153.456 88.6156 152.673C126.974 150.846 158.169 119.66 160.057 81.2316C162.271 36.4748 125.476 -0.191858 80.7356 2.22214C40.8794 4.44041 9.4242 38.2364 9.81494 78.1652C9.94519 92.062 13.8527 105.045 20.4954 116.137L19.9744 118.224C17.0437 130.294 12.0943 141.712 5.19112 152.086L2 157.109Z" stroke="white" stroke-width="4" stroke-miterlimit="10" stroke-linecap="round" stroke-linejoin="round"/>
</svg>
