<svg width="74" height="72" viewBox="0 0 74 72" fill="none" xmlns="http://www.w3.org/2000/svg">
<path d="M66.1367 48.2231L66.8668 45.4852H66.228L65.4979 48.2231C65.4066 48.6795 65.5891 48.9532 65.9542 48.9532H67.8708L68.0533 48.4057H66.3193C66.228 48.4057 66.1367 48.2231 66.1367 48.2231Z" fill="white"/>
<path d="M18.133 45.4852H17.6766L17.0378 48.0406C16.9465 48.3144 17.0378 48.4969 17.1291 48.6795C17.3116 48.862 17.5854 49.0445 17.8592 49.0445H19.0456L19.2282 48.4057H17.9505C17.8592 48.4057 17.7679 48.4056 17.6766 48.3144C17.6766 48.2231 17.5854 48.2231 17.6766 48.1319L18.3155 45.5764H18.133V45.4852Z" fill="white"/>
<path d="M69.5158 45.4852H69.0595L68.4206 47.9493C68.3293 48.2231 68.4206 48.4057 68.5119 48.5882C68.6944 48.7707 68.9682 48.9532 69.242 48.9532H70.4285L70.611 48.3144H69.3333C69.242 48.3144 69.1507 48.3144 69.0595 48.2231C69.0595 48.1319 68.9682 48.1319 69.0595 48.0406L69.6983 45.4852H69.5158Z" fill="white"/>
<path d="M26.8058 45.4852L26.6232 46.124H24.6154C24.3416 46.124 24.0678 46.3066 24.0678 46.4891V46.6716C24.0678 46.7629 24.0678 46.8542 24.0678 46.8542C24.1591 46.9454 24.2504 46.9454 24.3416 46.9454H25.7106C26.0757 46.9454 26.3494 47.0367 26.4407 47.3105C26.6232 47.493 26.6232 47.6755 26.532 47.9493V48.1319C26.4407 48.5882 25.8019 49.0445 25.2543 49.0445H22.9727L23.1552 48.4057H25.3455C25.6193 48.4057 25.8931 48.2231 25.8931 48.0406V47.8581C25.8931 47.7668 25.8931 47.6755 25.8931 47.6755C25.8018 47.5843 25.7106 47.5843 25.6193 47.5843H24.2504C23.8853 47.5843 23.6115 47.493 23.5202 47.2192C23.3377 47.0367 23.3377 46.8542 23.429 46.5804V46.3978C23.5202 45.9415 24.1591 45.4852 24.7067 45.4852H26.8058Z" fill="white"/>
<path d="M30.4556 45.4852L30.2731 46.124H28.174C27.9002 46.124 27.6264 46.3066 27.6264 46.4891V46.6716C27.6264 46.7629 27.6264 46.8542 27.6264 46.8542C27.7177 46.9454 27.809 46.9454 27.9002 46.9454H29.2692C29.6343 46.9454 29.908 47.0367 29.9993 47.3105C30.1818 47.493 30.1818 47.6755 30.0906 47.9493V48.1319C29.9993 48.5882 29.3605 49.0445 28.8129 49.0445H26.5312L26.7138 48.4057H28.9041C29.1779 48.4057 29.4517 48.2231 29.4517 48.0406V47.8581C29.4517 47.7668 29.4517 47.6755 29.4517 47.6755C29.3604 47.5843 29.2692 47.5843 29.1779 47.5843H27.809C27.4439 47.5843 27.1701 47.493 27.0788 47.2192C26.8963 47.0367 26.8963 46.8542 26.9876 46.5804V46.3978C27.0788 45.9415 27.7177 45.4852 28.2653 45.4852H30.4556Z" fill="white"/>
<path d="M57.2857 45.4852L57.1032 46.124H55.0041C54.7303 46.124 54.4565 46.3066 54.4565 46.4891V46.6716C54.4565 46.7629 54.4565 46.8542 54.4565 46.8542C54.5478 46.9454 54.639 46.9454 54.7303 46.9454H56.0993C56.4643 46.9454 56.7381 47.0367 56.8294 47.3105C57.0119 47.493 57.0119 47.6755 56.9206 47.9493V48.1319C56.8294 48.5882 56.1905 49.0445 55.6429 49.0445H53.3613L53.5439 48.4057H55.7342C56.008 48.4057 56.2818 48.2231 56.2818 48.0406V47.8581C56.2818 47.7668 56.2818 47.6755 56.2818 47.6755C56.1905 47.5843 56.0993 47.5843 56.008 47.5843H54.639C54.274 47.5843 54.0002 47.493 53.9089 47.2192C53.7264 47.0367 53.7264 46.8542 53.8177 46.5804V46.3978C53.9089 45.9415 54.5478 45.4852 55.0954 45.4852H57.2857Z" fill="white"/>
<path d="M21.1454 46.0322H23.062L23.2445 45.3934H21.2367C20.6891 45.3934 20.0502 45.7584 19.959 46.306L19.5026 47.9488C19.4114 48.2226 19.5027 48.4051 19.5939 48.5877C19.7764 48.7702 20.0502 48.9527 20.324 48.9527H22.2406L22.4231 48.3139H20.4153C20.324 48.3139 20.2328 48.3139 20.1415 48.2226C20.1415 48.1313 20.0502 48.1313 20.1415 48.0401C20.1415 48.0401 20.2328 47.7663 20.324 47.4925H22.7882L22.9707 46.8536H20.5066C20.5978 46.5798 20.5978 46.3973 20.5978 46.3973C20.5978 46.2148 20.8716 46.0322 21.1454 46.0322Z" fill="white"/>
<path d="M49.9852 46.0322H51.9018L52.0844 45.3934H50.0765C49.5289 45.3934 48.8901 45.7584 48.7988 46.306L48.3425 47.9488C48.2512 48.2226 48.3425 48.4051 48.4338 48.5877C48.6163 48.7702 48.8901 48.9527 49.1639 48.9527H51.0804L51.263 48.3139H49.2551C49.1639 48.3139 48.9814 48.3139 48.9814 48.2226C48.9814 48.1313 48.8901 48.1313 48.9814 48.0401C48.9814 48.0401 49.0726 47.7663 49.1639 47.4925H51.628L51.8105 46.8536H49.3464C49.4377 46.5798 49.4377 46.3973 49.4377 46.3973C49.5289 46.2148 49.7115 46.0322 49.9852 46.0322Z" fill="white"/>
<path d="M63.6747 46.0322H65.5913L65.7738 45.3934H63.766C63.2184 45.3934 62.5795 45.7584 62.4883 46.306L62.0319 47.9488C61.9407 48.2226 62.0319 48.4051 62.1232 48.5877C62.3057 48.7702 62.5795 48.9527 62.8533 48.9527H64.7699L64.9524 48.3139H62.9446C62.8533 48.3139 62.7621 48.3139 62.6708 48.2226C62.6708 48.1313 62.5795 48.1313 62.6708 48.0401C62.6708 48.0401 62.7621 47.7663 62.8533 47.4925H65.3175L65.5 46.8536H62.9446C63.0359 46.5798 63.0359 46.3973 63.0359 46.3973C63.1271 46.2148 63.4009 46.0322 63.6747 46.0322Z" fill="white"/>
<path d="M44.7821 45.7585C44.5996 45.5759 44.3258 45.3934 44.052 45.3934H43.0481H42.8656C42.318 45.3934 41.6791 45.7584 41.5879 46.306L41.1316 47.9488C41.0403 48.2226 41.1316 48.4051 41.2228 48.5877C41.4054 48.7702 41.6791 48.9527 41.9529 48.9527H43.0481H43.1394C43.6869 48.9527 44.3258 48.5877 44.4171 48.0401L44.8734 46.3973C44.9647 46.2148 44.8734 45.941 44.7821 45.7585ZM44.2345 46.3973L43.7782 47.9488C43.687 48.1313 43.5044 48.3139 43.2306 48.3139H42.1355H42.0442C41.9529 48.3139 41.7704 48.3139 41.7704 48.2226C41.7704 48.1313 41.6791 48.1313 41.7704 48.0401L42.2267 46.3973C42.318 46.2148 42.5005 46.0322 42.7743 46.0322H43.8695H43.9608C44.052 46.0322 44.2345 46.0322 44.2345 46.1235C44.2345 46.2148 44.2345 46.306 44.2345 46.3973Z" fill="white"/>
<path d="M40.677 45.4852L38.4867 48.1319L37.7566 45.4852H37.1177L36.2051 48.9532H36.8439C36.9352 48.6795 37.209 47.493 37.4828 46.5804L38.2129 48.9532H38.5779L40.4032 46.7629L39.8557 48.9532H40.4945C40.5858 48.4969 41.4072 45.4852 41.4072 45.4852H40.677Z" fill="white"/>
<path d="M61.4812 45.4852L59.2909 48.1319L58.4695 45.4852H57.8306L56.918 48.9532H57.5568C57.6481 48.6795 57.9219 47.493 58.1957 46.5804L58.9258 48.9532H59.2909L61.1162 46.7629L60.5686 48.9532H61.2074C61.2987 48.4969 62.1201 45.4852 62.1201 45.4852H61.4812Z" fill="white"/>
<path d="M36.3853 45.4852L36.2028 46.124H34.1037C33.8299 46.124 33.5561 46.3066 33.5561 46.4891V46.6716C33.5561 46.7629 33.5561 46.8542 33.5561 46.8542C33.6474 46.9454 33.7386 46.9454 33.8299 46.9454H35.1989C35.5639 46.9454 35.8377 47.0367 35.929 47.3105C36.1115 47.493 36.1115 47.6755 36.0203 47.9493V48.1319C35.929 48.5882 35.2901 49.0445 34.7426 49.0445H32.4609L32.6435 48.4057H34.8338C35.1076 48.4057 35.3814 48.2231 35.3814 48.0406V47.8581C35.3814 47.7668 35.3814 47.6755 35.3814 47.6755C35.2901 47.5843 35.1989 47.5843 35.1076 47.5843H33.7386C33.3736 47.5843 33.0998 47.493 33.0085 47.2192C32.826 47.0367 32.826 46.8542 32.9173 46.5804V46.3978C33.0085 45.9415 33.6474 45.4852 34.195 45.4852H36.3853Z" fill="white"/>
<path d="M49.1614 45.4852H48.1575L45.9672 46.9454C46.1497 46.2153 46.3322 45.4852 46.3322 45.4852H45.6021L44.6895 48.9532H45.3283C45.3283 48.7707 45.5108 48.2231 45.6934 47.5843L46.3322 47.2192L47.4274 48.9532H48.1575L46.8798 46.9454L49.1614 45.4852Z" fill="white"/>
<path d="M25.431 23.0282H22.728L19.1803 36.8248C18.8424 38.12 19.0958 39.3589 19.856 40.3443C20.757 41.4987 22.2775 42.1463 24.0232 42.1463H30.7526L31.5972 38.8802H24.4737C23.7979 38.8802 23.2348 38.6549 22.9251 38.2608C22.6998 37.951 22.6435 37.585 22.728 37.1627L26.3883 23H25.431V23.0282Z" fill="white"/>
<path d="M53.6434 23L52.7987 26.2661H41.4799C40.072 26.2661 38.6642 27.2235 38.3827 28.3497L38.1293 29.2226C38.0166 29.6449 38.1011 30.0109 38.3263 30.3207C38.6361 30.7148 39.1992 30.9401 39.8749 30.9401H47.5335C49.3073 30.9401 50.8278 31.5877 51.7006 32.7421C52.4608 33.7276 52.6861 34.9946 52.3764 36.2617L52.1511 37.1345C51.4472 39.8657 48.2374 42.09 45.0276 42.09H32.7795L33.6242 38.8239H45.5062C46.8859 38.8239 48.3219 37.8666 48.6034 36.7403C48.6034 36.7403 48.8287 35.8675 48.8287 35.8393C48.9413 35.417 48.885 35.0509 48.6316 34.7694C48.3219 34.3752 47.7587 34.1499 47.0548 34.1499H39.4244C37.6506 34.1499 36.1301 33.5023 35.2573 32.3479C34.4971 31.3624 34.2437 30.1236 34.5815 28.8284L34.8068 27.9555C35.5107 25.2244 38.6924 23 41.9304 23H53.6434Z" fill="white"/>
<path d="M73.9997 23L73.155 26.2661H61.808C60.4002 26.2661 58.9924 27.2235 58.7108 28.3497L58.4855 29.2226C58.3729 29.6449 58.4574 30.0109 58.6826 30.3207C58.9923 30.7148 59.5555 30.9401 60.2312 30.9401H67.8898C69.6636 30.9401 71.1841 31.5877 72.0569 32.7421C72.8171 33.7276 73.0705 34.9946 72.7327 36.2617L72.5074 37.1345C71.8035 39.8657 68.6218 42.09 65.3838 42.09H53.1077L53.9524 38.8239H65.8625C67.2703 38.8239 68.6781 37.8666 68.9597 36.7403C68.9597 36.7403 69.185 35.8675 69.185 35.8393C69.2976 35.417 69.2131 35.0509 68.9879 34.7694C68.6781 34.3752 68.115 34.1499 67.4393 34.1499H59.7807C58.0069 34.1499 56.4864 33.5023 55.6136 32.3479C54.8534 31.3624 54.6 30.1236 54.9378 28.8284L55.1631 27.9555C55.867 25.2244 59.0768 23 62.2866 23H73.9997Z" fill="white"/>
<path fill-rule="evenodd" clip-rule="evenodd" d="M49.9402 2.79842C46.507 1.63241 42.8274 1 39 1C20.2223 1 5 16.2223 5 35C5 53.7777 20.2223 69 39 69C50.6688 69 60.9646 63.1218 67.0878 54.165C60.8401 64.8344 49.2569 72 36 72C16.1177 72 0 55.8823 0 36C0 16.1177 16.1177 0 36 0C40.9426 0 45.6526 0.996069 49.9402 2.79842Z" fill="white"/>
</svg>
