<svg width="182" height="156" viewBox="0 0 182 156" fill="none" xmlns="http://www.w3.org/2000/svg">
<path d="M106.419 122.45H9.09258C5.75064 122.45 3 119.706 3 116.356V9.2036C3 5.85243 5.75064 3.10938 9.09258 3.10938H148.245C151.59 3.10938 154.34 5.85243 154.34 9.2036V81.502" stroke="white" stroke-width="5" stroke-miterlimit="10"/>
<path d="M154.34 17.577L78.6686 58.7117L3 17.577" stroke="white" stroke-width="5" stroke-miterlimit="10"/>
<path d="M179.407 116.36C179.407 136.654 162.959 153.109 142.666 153.109C122.366 153.109 105.914 136.654 105.914 116.36C105.914 96.055 122.366 79.6059 142.666 79.6059C162.959 79.6059 179.407 96.055 179.407 116.36Z" stroke="white" stroke-width="5" stroke-miterlimit="10"/>
<path d="M129.654 116.363H155.661" stroke="white" stroke-width="5" stroke-miterlimit="10"/>
</svg>
