<svg width="284" height="54" viewBox="0 0 284 54" fill="none" xmlns="http://www.w3.org/2000/svg">
<g filter="url(#filter0_d_6263_3236)">
<path d="M183.089 45.0721H177.168V18.7373H182.32L196.24 35.7148V18.7373H202.161V45.0721H197.009L183.089 28.0157V45.0721Z" fill="white"/>
<path d="M155.383 18.145C159.433 18.145 162.74 19.4216 165.303 21.9748C167.969 24.6333 169.302 27.9498 169.302 31.9244C169.302 35.8463 167.969 39.1365 165.303 41.795C162.714 44.3745 159.407 45.6643 155.383 45.6643C151.332 45.6643 148 44.3745 145.385 41.795C144.129 40.5842 143.142 39.1365 142.424 37.4519C141.732 35.741 141.386 33.9248 141.386 32.0034C141.386 30.1608 141.745 28.3446 142.463 26.5548C143.206 24.7386 144.167 23.2251 145.347 22.0143C147.859 19.4347 151.204 18.145 155.383 18.145ZM155.344 23.7515C153.063 23.7515 151.191 24.5017 149.73 26.002C148.218 27.5023 147.461 29.4896 147.461 31.9639C147.461 34.3328 148.243 36.307 149.807 37.8863C151.294 39.334 153.127 40.0578 155.306 40.0578C157.638 40.0578 159.535 39.3076 160.996 37.8073C162.483 36.3333 163.227 34.3723 163.227 31.9244C163.227 29.5028 162.483 27.5287 160.996 26.002C159.484 24.5017 157.6 23.7515 155.344 23.7515Z" fill="white"/>
<path d="M137.094 23.87H131.48V45.0721H125.559V23.87H120.022V18.7373H137.094V23.87Z" fill="white"/>
<path d="M113.799 20.7508L111.146 25.1729C109.787 23.9094 108.352 23.2777 106.839 23.2777C105.712 23.2777 104.878 23.5804 104.34 24.1858C103.904 24.6333 103.686 25.186 103.686 25.8441C103.686 26.4495 103.879 26.9364 104.263 27.3049C104.391 27.4102 104.52 27.5155 104.648 27.6208C104.776 27.6998 104.955 27.7919 105.186 27.8972C105.417 28.0025 105.609 28.0946 105.763 28.1735C105.917 28.2262 106.186 28.3315 106.57 28.4894C106.955 28.621 107.262 28.7263 107.493 28.8053L109.416 29.5554C111.031 30.1872 112.197 30.8584 112.915 31.569C114.171 32.7798 114.799 34.4118 114.799 36.4649C114.799 39.2023 114.043 41.3739 112.53 42.9795C110.864 44.7694 108.442 45.6643 105.263 45.6643C103.315 45.6643 101.623 45.2958 100.187 44.5588C98.9056 43.9008 97.6495 42.94 96.419 41.6766L99.4952 37.3335C100.367 38.2284 101.161 38.8996 101.879 39.3471C102.879 39.9788 103.956 40.2947 105.109 40.2947C106.211 40.2947 107.109 39.992 107.801 39.3866C108.416 38.8602 108.724 38.1495 108.724 37.2545C108.724 36.5175 108.429 35.8858 107.839 35.3594C107.378 34.9645 106.378 34.4776 104.84 33.8985L102.725 33.1483C101.059 32.543 99.8669 31.8454 99.1491 31.0558C98.1237 29.9503 97.611 28.4236 97.611 26.4758C97.611 24.0805 98.3544 22.1064 99.8412 20.5534C101.379 18.9478 103.494 18.145 106.186 18.145C108.98 18.145 111.518 19.0136 113.799 20.7508Z" fill="white"/>
<path d="M69.7772 45.0721H63.8556V18.7373H69.0081L82.9276 35.7148V18.7373H88.8492V45.0721H83.6967L69.7772 28.0157V45.0721Z" fill="white"/>
<path d="M48.7563 18.7373H54.6779V45.0721H48.7563V18.7373Z" fill="white"/>
<path d="M4 18.7373H10.1523L15.6124 36.1885L21.0725 18.7373H25.1484L30.6085 36.1885L36.0686 18.7373H42.2209L33.4924 45.0721H28.4937L23.1104 29.0817L17.7272 45.0721H12.7285L4 18.7373Z" fill="white"/>
<path d="M243.8 21.1584C240.915 23.3033 238.992 25.1829 237.539 27.2836C233.479 33.1656 232.923 39.5342 233.179 43.824L233.265 45.3498H225.679L225.615 43.9567C225.358 38.4727 226.127 30.3573 231.384 22.7284C233.607 19.4778 236.406 16.7579 239.654 14.5909C241.086 13.64 242.603 12.7997 244.185 12.0479L227.88 11.9594L223.093 4.10938L254.976 4.28628L254.912 16.183C250.98 16.8464 246.086 19.4557 243.8 21.1584ZM272.841 13.7064C269.294 10.7211 264.956 9.06265 259.934 8.77519L259.742 8.75307L259.699 16.6253H259.742C263.075 16.8464 265.875 17.9078 268.076 19.7653C270.832 22.0871 272.456 25.6473 272.435 29.2738C272.392 35.9298 267.264 41.3253 260.981 41.2811C254.698 41.2368 249.634 35.7971 249.655 29.1411V27.6595L242.09 27.6153V29.0969C242.026 40.0649 250.489 49.0427 260.938 49.109C271.388 49.1753 279.936 40.286 280 29.318C280.021 23.3475 277.35 17.4876 272.841 13.7064Z" fill="white"/>
</g>
<defs>
<filter id="filter0_d_6263_3236" x="0" y="0.109375" width="284" height="53" filterUnits="userSpaceOnUse" color-interpolation-filters="sRGB">
<feFlood flood-opacity="0" result="BackgroundImageFix"/>
<feColorMatrix in="SourceAlpha" type="matrix" values="0 0 0 0 0 0 0 0 0 0 0 0 0 0 0 0 0 0 127 0" result="hardAlpha"/>
<feOffset/>
<feGaussianBlur stdDeviation="2"/>
<feComposite in2="hardAlpha" operator="out"/>
<feColorMatrix type="matrix" values="0 0 0 0 0.0142188 0 0 0 0 0.107019 0 0 0 0 0.4875 0 0 0 0.5 0"/>
<feBlend mode="normal" in2="BackgroundImageFix" result="effect1_dropShadow_6263_3236"/>
<feBlend mode="normal" in="SourceGraphic" in2="effect1_dropShadow_6263_3236" result="shape"/>
</filter>
</defs>
</svg>
