<svg width="89" height="72" viewBox="0 0 89 72" fill="none" xmlns="http://www.w3.org/2000/svg">
<path d="M36.2534 24.6274C36.2534 24.9767 36.2414 25.2839 36.2173 25.5488C36.1932 25.8018 36.1571 26.0426 36.1089 26.2715C36.0728 26.4883 36.0186 26.6991 35.9463 26.9038C35.874 27.0965 35.7897 27.3073 35.6934 27.5361L27.9971 45.3677C27.9248 45.5243 27.8285 45.6507 27.708 45.7471C27.5996 45.8434 27.443 45.9217 27.2383 45.9819C27.0335 46.0301 26.7686 46.0602 26.4434 46.0723C26.1302 46.0964 25.7388 46.1084 25.269 46.1084C24.6307 46.1084 24.1248 46.0843 23.7515 46.0361C23.3781 46 23.1011 45.9398 22.9204 45.8555C22.7518 45.7591 22.6615 45.6447 22.6494 45.5122C22.6374 45.3677 22.6795 45.193 22.7759 44.9883L31.0503 26.7412H21.2222C20.9692 26.7412 20.7765 26.5786 20.644 26.2534C20.5236 25.9162 20.4634 25.3862 20.4634 24.6636C20.4634 24.3022 20.4814 23.9951 20.5176 23.7422C20.5537 23.4772 20.6019 23.2604 20.6621 23.0918C20.7344 22.9232 20.8127 22.8027 20.897 22.7305C20.9933 22.6582 21.1017 22.6221 21.2222 22.6221H35.1152C35.332 22.6221 35.5127 22.6462 35.6572 22.6943C35.8018 22.7305 35.9162 22.8208 36.0005 22.9653C36.0848 23.1099 36.145 23.3146 36.1812 23.5796C36.2293 23.8446 36.2534 24.1938 36.2534 24.6274ZM39.457 43.3984C39.457 44.5186 39.2582 45.2713 38.8608 45.6567C38.4753 46.0422 37.7768 46.2349 36.7651 46.2349C35.7533 46.2349 35.0548 46.0482 34.6694 45.6748C34.2839 45.2894 34.0912 44.5667 34.0912 43.5068C34.0912 42.3747 34.2839 41.6159 34.6694 41.2305C35.0668 40.8451 35.7774 40.6523 36.8012 40.6523C37.8009 40.6523 38.4934 40.8451 38.8788 41.2305C39.2642 41.6038 39.457 42.3265 39.457 43.3984ZM57.8861 39.731C57.8861 40.7909 57.6994 41.7363 57.3261 42.5674C56.9647 43.3984 56.4228 44.103 55.7001 44.6812C54.9895 45.2472 54.1042 45.6808 53.0443 45.9819C51.9844 46.271 50.7619 46.4155 49.3769 46.4155C48.052 46.4155 46.8897 46.283 45.89 46.0181C44.8904 45.7531 44.0533 45.3677 43.3788 44.8618C42.7043 44.3439 42.1985 43.7116 41.8612 42.9648C41.524 42.2061 41.3554 41.3389 41.3554 40.3633C41.3554 39.7008 41.4517 39.0806 41.6444 38.5024C41.8492 37.9123 42.1443 37.3703 42.5297 36.8765C42.9271 36.3706 43.4149 35.9009 43.9931 35.4673C44.5832 35.0216 45.2577 34.6001 46.0165 34.2026C45.4022 33.8654 44.8482 33.5041 44.3544 33.1187C43.8606 32.7212 43.439 32.2936 43.0897 31.8359C42.7405 31.3662 42.4755 30.8543 42.2948 30.3003C42.1142 29.7463 42.0238 29.144 42.0238 28.4937C42.0238 27.5542 42.1864 26.7051 42.5116 25.9463C42.8489 25.1755 43.3427 24.513 43.9931 23.959C44.6555 23.3929 45.4805 22.9593 46.4682 22.6582C47.4558 22.3571 48.6 22.2065 49.9008 22.2065C51.1895 22.2065 52.2916 22.3451 53.2069 22.6221C54.1343 22.8991 54.8931 23.2905 55.4833 23.7964C56.0735 24.3022 56.5071 24.9105 56.7841 25.6211C57.0731 26.3197 57.2177 27.0965 57.2177 27.9517C57.2177 28.5177 57.1213 29.0718 56.9286 29.6138C56.7479 30.1437 56.489 30.6496 56.1518 31.1313C55.8145 31.6131 55.399 32.0708 54.9052 32.5044C54.4114 32.9259 53.8513 33.3114 53.225 33.6606C53.9597 34.0461 54.6161 34.4556 55.1942 34.8892C55.7724 35.3228 56.2602 35.7925 56.6576 36.2983C57.0551 36.7922 57.3562 37.3221 57.5609 37.8882C57.7777 38.4543 57.8861 39.0685 57.8861 39.731ZM52.6469 28.3853C52.6469 27.9637 52.5867 27.5843 52.4662 27.2471C52.3458 26.9098 52.1531 26.6268 51.8881 26.3979C51.6352 26.1571 51.316 25.9764 50.9306 25.856C50.5572 25.7355 50.1116 25.6753 49.5937 25.6753C48.5819 25.6753 47.8292 25.9102 47.3354 26.3799C46.8415 26.8376 46.5946 27.4759 46.5946 28.2949C46.5946 28.6803 46.6549 29.0356 46.7753 29.3608C46.9078 29.686 47.1065 29.9932 47.3715 30.2822C47.6365 30.5713 47.9797 30.8543 48.4013 31.1313C48.8228 31.4084 49.3227 31.7035 49.9008 32.0166C50.78 31.4987 51.4545 30.9447 51.9242 30.3545C52.406 29.7643 52.6469 29.1079 52.6469 28.3853ZM53.1889 40.0562C53.1889 39.6105 53.1106 39.207 52.954 38.8457C52.8095 38.4723 52.5746 38.123 52.2494 37.7979C51.9363 37.4727 51.5388 37.1595 51.057 36.8584C50.5753 36.5573 50.0152 36.2502 49.3769 35.937C48.8228 36.2381 48.335 36.5392 47.9135 36.8403C47.4919 37.1414 47.1426 37.4606 46.8656 37.7979C46.5886 38.123 46.3778 38.4723 46.2333 38.8457C46.1008 39.207 46.0346 39.5985 46.0346 40.02C46.0346 40.9595 46.3357 41.6761 46.9379 42.1699C47.5521 42.6637 48.4615 42.9106 49.6659 42.9106C50.8463 42.9106 51.7255 42.6577 52.3036 42.1519C52.8938 41.646 53.1889 40.9474 53.1889 40.0562ZM70.3314 40.5068C70.3314 40.5459 70.3241 40.585 70.3095 40.624C70.2948 40.6582 70.2655 40.6899 70.2216 40.7192C70.1825 40.7485 70.1239 40.7729 70.0458 40.7925C69.9677 40.8071 69.8651 40.8145 69.7382 40.8145C69.6112 40.8145 69.5087 40.8071 69.4305 40.7925C69.3524 40.7729 69.2914 40.7485 69.2474 40.7192C69.2084 40.6899 69.1815 40.6582 69.1669 40.624C69.1522 40.585 69.1449 40.5459 69.1449 40.5068V37.8994C69.0521 37.8896 68.9569 37.8823 68.8593 37.8774C68.7665 37.8677 68.6688 37.8628 68.5663 37.8628C68.5077 37.8628 68.4564 37.8628 68.4125 37.8628C68.3734 37.8628 68.3148 37.8677 68.2367 37.8774V40.5068C68.2367 40.5459 68.2294 40.585 68.2147 40.624C68.2001 40.6582 68.1708 40.6899 68.1268 40.7192C68.0878 40.7485 68.0292 40.7729 67.9511 40.7925C67.8729 40.8071 67.7704 40.8145 67.6434 40.8145C67.5165 40.8145 67.4139 40.8071 67.3358 40.7925C67.2577 40.7729 67.1967 40.7485 67.1527 40.7192C67.1137 40.6899 67.0868 40.6582 67.0721 40.624C67.0575 40.585 67.0502 40.5459 67.0502 40.5068V38.2144C66.8012 38.3267 66.5839 38.478 66.3983 38.6685C66.2128 38.8589 66.059 39.0786 65.9369 39.3276C65.8148 39.5767 65.722 39.8501 65.6586 40.1479C65.6 40.4409 65.5707 40.7485 65.5707 41.0708C65.5707 41.4224 65.6195 41.769 65.7172 42.1108C65.8148 42.4478 65.9613 42.7651 66.1566 43.063C66.3568 43.3608 66.601 43.6343 66.889 43.8833C67.182 44.1323 67.5238 44.3423 67.9144 44.5132H72.3969C72.4847 44.5132 72.5555 44.5669 72.6093 44.6743C72.663 44.7817 72.6898 44.9771 72.6898 45.2603C72.6898 45.5386 72.6605 45.7314 72.6019 45.8389C72.5482 45.9463 72.4799 46 72.3969 46H63.996C63.913 46 63.8422 45.9463 63.7836 45.8389C63.7299 45.7314 63.703 45.5386 63.703 45.2603C63.703 44.9771 63.7274 44.7817 63.7762 44.6743C63.83 44.5669 63.9032 44.5132 63.996 44.5132H65.307C65.0531 44.3325 64.8212 44.1201 64.6112 43.876C64.4061 43.627 64.2304 43.356 64.0839 43.063C63.9374 42.7651 63.8251 42.4478 63.747 42.1108C63.6688 41.7739 63.6298 41.4272 63.6298 41.0708C63.6298 40.5239 63.6981 40.0112 63.8348 39.5327C63.9764 39.0493 64.1888 38.6147 64.472 38.229C64.7553 37.8384 65.1093 37.5015 65.5341 37.2183C65.9637 36.9302 66.4691 36.708 67.0502 36.5518V35.6655C67.0502 35.6313 67.0575 35.5972 67.0721 35.563C67.0868 35.5239 67.1137 35.4897 67.1527 35.4604C67.1967 35.4312 67.2577 35.4092 67.3358 35.3945C67.4139 35.375 67.5165 35.3652 67.6434 35.3652C67.7704 35.3652 67.8729 35.375 67.9511 35.3945C68.0292 35.4092 68.0878 35.4312 68.1268 35.4604C68.1708 35.4897 68.2001 35.5239 68.2147 35.563C68.2294 35.5972 68.2367 35.6313 68.2367 35.6655V36.3687C68.3002 36.3638 68.3637 36.3613 68.4271 36.3613C68.4955 36.3564 68.5638 36.354 68.6322 36.354C68.7201 36.354 68.8055 36.3564 68.8886 36.3613C68.9764 36.3662 69.0619 36.3711 69.1449 36.376V35.6655C69.1449 35.6313 69.1522 35.5972 69.1669 35.563C69.1815 35.5239 69.2084 35.4897 69.2474 35.4604C69.2914 35.4312 69.3524 35.4092 69.4305 35.3945C69.5087 35.375 69.6112 35.3652 69.7382 35.3652C69.8651 35.3652 69.9677 35.375 70.0458 35.3945C70.1239 35.4092 70.1825 35.4312 70.2216 35.4604C70.2655 35.4897 70.2948 35.5239 70.3095 35.563C70.3241 35.5972 70.3314 35.6313 70.3314 35.6655V36.5884C70.7904 36.7251 71.2006 36.9204 71.5619 37.1743C71.9281 37.4282 72.2357 37.7212 72.4847 38.0532C72.7387 38.3804 72.9315 38.7368 73.0634 39.1226C73.1952 39.5034 73.2611 39.8916 73.2611 40.2871C73.2611 40.458 73.2025 40.5898 73.0853 40.6826C72.9681 40.7705 72.7557 40.8145 72.4481 40.8145C72.2919 40.8145 72.1552 40.8096 72.038 40.7998C71.9208 40.79 71.8207 40.7705 71.7377 40.7412C71.6595 40.707 71.5985 40.6606 71.5546 40.6021C71.5106 40.5386 71.4838 40.4556 71.474 40.353C71.4496 40.1333 71.4081 39.9233 71.3495 39.7231C71.2909 39.5181 71.2128 39.3252 71.1151 39.1445C71.0223 38.9639 70.91 38.8003 70.7782 38.6538C70.6464 38.5073 70.4974 38.3828 70.3314 38.2803V40.5068ZM79.9262 39.1226C80.0238 39.1567 80.0678 39.2324 80.058 39.3496C80.0531 39.4668 79.9799 39.6475 79.8383 39.8916C79.6967 40.1357 79.577 40.2896 79.4794 40.353C79.3817 40.4116 79.2938 40.4092 79.2157 40.3457L77.7582 39.1812L78.0512 41.0195C78.0756 41.1221 78.0341 41.2002 77.9266 41.2539C77.8192 41.3076 77.6239 41.3345 77.3407 41.3345C77.0575 41.3345 76.8622 41.3076 76.7548 41.2539C76.6473 41.2002 76.6058 41.1221 76.6303 41.0195L76.9232 39.1812L75.4657 40.3457C75.3925 40.4092 75.307 40.4092 75.2094 40.3457C75.1117 40.2822 74.9896 40.1284 74.8431 39.8843C74.7015 39.645 74.6283 39.4668 74.6234 39.3496C74.6185 39.2324 74.6625 39.1567 74.7553 39.1226L76.4984 38.4487L74.7553 37.7749C74.6625 37.7407 74.6185 37.665 74.6234 37.5479C74.6283 37.4307 74.7015 37.25 74.8431 37.0059C74.9847 36.7617 75.1044 36.6079 75.202 36.5444C75.3046 36.481 75.3925 36.4834 75.4657 36.5518L76.9232 37.7163L76.6303 35.8779C76.6058 35.7803 76.6473 35.7046 76.7548 35.6509C76.8622 35.5923 77.0575 35.563 77.3407 35.563C77.6239 35.563 77.8192 35.5923 77.9266 35.6509C78.0341 35.7046 78.0756 35.7803 78.0512 35.8779L77.7582 37.7163L79.2157 36.5518C79.2938 36.4834 79.3793 36.4834 79.472 36.5518C79.5697 36.6152 79.6918 36.769 79.8383 37.0132C79.9799 37.2524 80.0531 37.4307 80.058 37.5479C80.0678 37.665 80.0238 37.7407 79.9262 37.7749L78.1903 38.4487L79.9262 39.1226ZM87.3969 39.1226C87.4945 39.1567 87.5385 39.2324 87.5287 39.3496C87.5238 39.4668 87.4506 39.6475 87.309 39.8916C87.1674 40.1357 87.0477 40.2896 86.9501 40.353C86.8524 40.4116 86.7645 40.4092 86.6864 40.3457L85.2289 39.1812L85.5219 41.0195C85.5463 41.1221 85.5048 41.2002 85.3973 41.2539C85.2899 41.3076 85.0946 41.3345 84.8114 41.3345C84.5282 41.3345 84.3329 41.3076 84.2255 41.2539C84.118 41.2002 84.0765 41.1221 84.101 41.0195L84.3939 39.1812L82.9364 40.3457C82.8632 40.4092 82.7777 40.4092 82.6801 40.3457C82.5824 40.2822 82.4603 40.1284 82.3138 39.8843C82.1722 39.645 82.099 39.4668 82.0941 39.3496C82.0892 39.2324 82.1332 39.1567 82.226 39.1226L83.9691 38.4487L82.226 37.7749C82.1332 37.7407 82.0892 37.665 82.0941 37.5479C82.099 37.4307 82.1722 37.25 82.3138 37.0059C82.4554 36.7617 82.5751 36.6079 82.6727 36.5444C82.7753 36.481 82.8632 36.4834 82.9364 36.5518L84.3939 37.7163L84.101 35.8779C84.0765 35.7803 84.118 35.7046 84.2255 35.6509C84.3329 35.5923 84.5282 35.563 84.8114 35.563C85.0946 35.563 85.2899 35.5923 85.3973 35.6509C85.5048 35.7046 85.5463 35.7803 85.5219 35.8779L85.2289 37.7163L86.6864 36.5518C86.7645 36.4834 86.85 36.4834 86.9428 36.5518C87.0404 36.6152 87.1625 36.769 87.309 37.0132C87.4506 37.2524 87.5238 37.4307 87.5287 37.5479C87.5385 37.665 87.4945 37.7407 87.3969 37.7749L85.661 38.4487L87.3969 39.1226Z" fill="white"/>
<path fill-rule="evenodd" clip-rule="evenodd" d="M49.9402 2.79842C46.507 1.63241 42.8274 1 39 1C20.2223 1 5 16.2223 5 35C5 53.7777 20.2223 69 39 69C50.6688 69 60.9646 63.1218 67.0878 54.165C60.8401 64.8344 49.2569 72 36 72C16.1177 72 0 55.8823 0 36C0 16.1177 16.1177 0 36 0C40.9426 0 45.6526 0.996069 49.9402 2.79842Z" fill="white"/>
</svg>
