<svg width="269" height="160" viewBox="0 0 269 160" fill="none" xmlns="http://www.w3.org/2000/svg">
<path d="M159.518 43.2001L149.479 60.5691L166.853 70.6043L176.892 53.2353L159.518 43.2001Z" fill="white"/>
<path d="M196.217 17.6023V18.515L186.184 35.8376L168.854 25.8084L178.888 7.57312L196.217 17.6023Z" fill="white"/>
<path d="M203.518 45.8632L193.485 63.1859L176.155 53.1567L186.188 35.8329L203.518 45.8632Z" fill="white"/>
<path d="M194.064 62.8201L184.019 80.1852L201.391 90.2269L211.436 72.8619L194.064 62.8201Z" fill="white"/>
<path d="M214.401 28.409L204.356 45.774L221.727 55.8152L231.772 38.4502L214.401 28.409Z" fill="white"/>
<path d="M239.117 65.9212L229.084 83.2449L211.754 73.2157L221.787 55.892L239.117 65.9212Z" fill="white"/>
<path d="M246.371 93.2807L236.338 111.516L219.008 100.575L229.042 83.2515L246.371 93.2807Z" fill="white"/>
<path d="M266.455 58.6308L256.421 75.9545L239.092 65.9253L249.125 48.6016L266.455 58.6308Z" fill="white"/>
<path d="M93.1931 157.109L148.831 60.4625L158.864 43.1388L168.897 25.815L178.93 7.57974L182.578 2.10938" stroke="white" stroke-width="4" stroke-miterlimit="10" stroke-linecap="round" stroke-linejoin="round"/>
<path d="M266.511 58.6434L256.478 75.9672L246.445 93.2909L236.412 111.526" stroke="white" stroke-width="4" stroke-miterlimit="10" stroke-linecap="round" stroke-linejoin="round"/>
<path d="M148.824 60.457L166.154 70.4862L183.484 80.5154L200.813 90.5446L219.055 100.575L236.385 111.516" stroke="white" stroke-width="4" stroke-miterlimit="10" stroke-linecap="round" stroke-linejoin="round"/>
<path d="M178.958 7.57324L196.287 17.6024V18.5151L214.529 28.5443L231.859 38.5735L249.189 48.6027L266.519 58.6318" stroke="white" stroke-width="4" stroke-miterlimit="10" stroke-linecap="round" stroke-linejoin="round"/>
<path d="M110.007 43.4719L92.6318 53.5074L102.671 70.8759L120.046 60.8405L110.007 43.4719Z" fill="white"/>
<path d="M72.2374 17.6023V18.515L82.2702 35.8376L99.6002 25.8084L89.5671 7.57312L72.2374 17.6023Z" fill="white"/>
<path d="M64.9369 45.8632L74.97 63.1859L92.2997 53.1567L82.2666 35.8329L64.9369 45.8632Z" fill="white"/>
<path d="M73.7881 64.0312L56.4168 74.0727L66.4622 91.4382L83.8335 81.3967L73.7881 64.0312Z" fill="white"/>
<path d="M53.9577 29.229L36.5866 39.2703L46.6315 56.6349L64.0025 46.5935L53.9577 29.229Z" fill="white"/>
<path d="M29.3839 65.9212L39.417 83.2449L56.7468 73.2157L46.7137 55.892L29.3839 65.9212Z" fill="white"/>
<path d="M22.0834 93.2807L32.1163 111.516L49.4463 100.575L39.4132 83.2515L22.0834 93.2807Z" fill="white"/>
<path d="M2 58.6308L12.0331 75.9545L29.3628 65.9253L19.3297 48.6016L2 58.6308Z" fill="white"/>
<path d="M175.32 157.109L119.683 60.4625L109.649 43.1388L99.6166 25.815L89.5835 7.57974L85.9352 2.10938" stroke="white" stroke-width="4" stroke-miterlimit="10" stroke-linecap="round" stroke-linejoin="round"/>
<path d="M2 58.6434L12.0331 75.9672L22.0662 93.2909L32.099 111.526" stroke="white" stroke-width="4" stroke-miterlimit="10" stroke-linecap="round" stroke-linejoin="round"/>
<path d="M119.638 60.457L102.308 70.4862L84.9781 80.5154L67.6483 90.5446L49.4064 100.575L32.0764 111.516" stroke="white" stroke-width="4" stroke-miterlimit="10" stroke-linecap="round" stroke-linejoin="round"/>
<path d="M89.5612 7.57324L72.2314 17.6024V18.5151L53.9895 28.5443L36.6595 38.5735L19.3297 48.6027L2 58.6318" stroke="white" stroke-width="4" stroke-miterlimit="10" stroke-linecap="round" stroke-linejoin="round"/>
</svg>
