<svg width="144" height="227" viewBox="0 0 144 227" fill="none" xmlns="http://www.w3.org/2000/svg">
<path d="M42.8325 62.4803L53.6397 75.3106L74.562 51.4601" stroke="white" stroke-width="4" stroke-miterlimit="10" stroke-linecap="round" stroke-linejoin="round"/>
<path d="M66.7373 5.03845H39.1602" stroke="white" stroke-width="4" stroke-miterlimit="10" stroke-linecap="round" stroke-linejoin="round"/>
<path d="M52.9478 164.059H43.8442" stroke="white" stroke-width="4" stroke-miterlimit="10" stroke-linecap="round" stroke-linejoin="round"/>
<path d="M73.6044 179.869H15.2561C7.96254 179.869 2 173.96 2 166.613V15.3655C2 8.07198 7.90931 2.10938 15.2561 2.10938H90.6936C97.9871 2.10938 103.95 8.01875 103.95 15.3655V156.871" stroke="white" stroke-width="4" stroke-miterlimit="10" stroke-linecap="round" stroke-linejoin="round"/>
<path d="M103.893 73.6071C108.312 76.6948 116.936 81.5927 120.716 86.4906C126.093 93.4647 132.961 106.242 137.22 114.653C139.882 119.924 141.319 125.78 141.319 131.689V224.109" stroke="white" stroke-width="4" stroke-miterlimit="10" stroke-linecap="round" stroke-linejoin="round"/>
<path d="M102.829 154.954C102.829 154.954 96.3873 142.923 87.337 122.746C79.511 105.284 54.9686 115.346 63.806 136.694C70.8334 153.783 74.347 165.602 74.347 165.602C72.4305 177.58 73.3355 196.32 82.3859 205.849" stroke="white" stroke-width="4" stroke-miterlimit="10" stroke-linecap="round" stroke-linejoin="round"/>
<path d="M82.3859 205.902V224.109" stroke="white" stroke-width="4" stroke-miterlimit="10" stroke-linecap="round" stroke-linejoin="round"/>
<path d="M81.3244 70.2533C80.6856 85.3727 68.228 97.4044 52.9488 97.4044C37.297 97.4044 24.5732 84.6806 24.5732 69.0288C24.5732 53.377 37.297 40.6532 52.9488 40.6532C55.7172 40.6532 58.3258 41.0259 60.828 41.7712" stroke="white" stroke-width="4" stroke-miterlimit="10" stroke-linecap="round" stroke-linejoin="round"/>
</svg>
