<svg width="74" height="72" viewBox="0 0 74 72" fill="none" xmlns="http://www.w3.org/2000/svg">
<path d="M36.6328 37.1953C36.6328 38.3757 36.4521 39.4717 36.0908 40.4834C35.7295 41.4831 35.1995 42.3503 34.501 43.085C33.8024 43.8076 32.9412 44.3797 31.9175 44.8013C30.8937 45.2108 29.7134 45.4155 28.3765 45.4155C27.2925 45.4155 26.347 45.2891 25.54 45.0361C24.7331 44.7952 24.0345 44.446 23.4443 43.9883C22.8542 43.5186 22.3724 42.9525 21.999 42.29C21.6257 41.6276 21.3245 40.8809 21.0957 40.0498C20.8789 39.2188 20.7284 38.3154 20.644 37.3398C20.5597 36.3643 20.5176 35.3285 20.5176 34.2324C20.5176 33.3171 20.5597 32.3595 20.644 31.3599C20.7404 30.3602 20.915 29.3786 21.168 28.415C21.4329 27.4515 21.8003 26.5361 22.27 25.6689C22.7397 24.7897 23.342 24.0249 24.0767 23.3745C24.8234 22.7121 25.7207 22.1882 26.7686 21.8027C27.8285 21.4173 29.0811 21.2246 30.5264 21.2246C30.984 21.2246 31.4417 21.2547 31.8994 21.3149C32.3691 21.3631 32.8027 21.4294 33.2002 21.5137C33.5977 21.598 33.9349 21.6943 34.2119 21.8027C34.4889 21.9111 34.6696 22.0075 34.7539 22.0918C34.8503 22.1641 34.9225 22.2484 34.9707 22.3447C35.0189 22.4411 35.055 22.5495 35.0791 22.6699C35.1152 22.7783 35.1393 22.9168 35.1514 23.0854C35.1634 23.2541 35.1694 23.4588 35.1694 23.6997C35.1694 24.0731 35.1574 24.3862 35.1333 24.6392C35.1213 24.88 35.0911 25.0728 35.043 25.2173C34.9948 25.3498 34.9285 25.4461 34.8442 25.5063C34.7599 25.5666 34.6576 25.5967 34.5371 25.5967C34.3926 25.5967 34.2059 25.5605 33.9771 25.4883C33.7482 25.404 33.4712 25.3136 33.146 25.2173C32.8208 25.1209 32.4354 25.0366 31.9897 24.9644C31.5562 24.8921 31.0503 24.856 30.4722 24.856C29.4966 24.856 28.6715 25.0366 27.9971 25.3979C27.3226 25.7593 26.7746 26.2531 26.353 26.8794C25.9315 27.4937 25.6243 28.2103 25.4316 29.0293C25.2389 29.8483 25.1366 30.7155 25.1245 31.6309C25.3895 31.4622 25.6906 31.2936 26.0278 31.125C26.3771 30.9564 26.7505 30.8118 27.1479 30.6914C27.5575 30.571 27.9971 30.4746 28.4668 30.4023C28.9365 30.318 29.4364 30.2759 29.9663 30.2759C31.1466 30.2759 32.1584 30.4385 33.0015 30.7637C33.8446 31.0889 34.5311 31.5526 35.061 32.1548C35.603 32.757 36.0005 33.4857 36.2534 34.3408C36.5063 35.196 36.6328 36.1475 36.6328 37.1953ZM31.9717 37.647C31.9717 37.0327 31.9175 36.4967 31.8091 36.0391C31.7007 35.5693 31.526 35.1779 31.2852 34.8647C31.0443 34.5396 30.7251 34.2987 30.3276 34.1421C29.9302 33.9735 29.4484 33.8892 28.8823 33.8892C28.5451 33.8892 28.2139 33.9193 27.8887 33.9795C27.5635 34.0397 27.2443 34.124 26.9312 34.2324C26.618 34.3408 26.3169 34.4733 26.0278 34.6299C25.7388 34.7744 25.4678 34.931 25.2148 35.0996C25.2148 36.3883 25.2871 37.4663 25.4316 38.3335C25.5762 39.1886 25.7869 39.8691 26.064 40.375C26.353 40.8809 26.7083 41.2422 27.1299 41.459C27.5635 41.6637 28.0633 41.7661 28.6294 41.7661C29.1834 41.7661 29.6652 41.6637 30.0747 41.459C30.4963 41.2542 30.8455 40.9652 31.1226 40.5918C31.3996 40.2184 31.6104 39.7848 31.7549 39.291C31.8994 38.7852 31.9717 38.2371 31.9717 37.647ZM54.0146 44.7363C54.0146 44.7852 54 44.8291 53.9707 44.8682C53.9463 44.9072 53.8974 44.939 53.8242 44.9634C53.7558 44.9878 53.6631 45.0073 53.5459 45.022C53.4287 45.0366 53.2798 45.0439 53.0991 45.0439C52.9233 45.0439 52.7768 45.0366 52.6596 45.022C52.5425 45.0073 52.4497 44.9878 52.3813 44.9634C52.313 44.939 52.2641 44.9072 52.2348 44.8682C52.2055 44.8291 52.1909 44.7852 52.1909 44.7363V37.0239H52.1763L49.4297 44.729C49.4101 44.7925 49.3784 44.8462 49.3345 44.8901C49.2905 44.9292 49.2295 44.9609 49.1513 44.9854C49.0781 45.0098 48.9829 45.0244 48.8657 45.0293C48.7485 45.0391 48.6069 45.0439 48.4409 45.0439C48.2749 45.0439 48.1333 45.0366 48.0161 45.022C47.8989 45.0122 47.8013 44.9951 47.7231 44.9707C47.6499 44.9414 47.5913 44.9072 47.5473 44.8682C47.5034 44.8291 47.4741 44.7827 47.4595 44.729L44.8081 37.0239H44.7934V44.7363C44.7934 44.7852 44.7788 44.8291 44.7495 44.8682C44.7251 44.9072 44.6763 44.939 44.603 44.9634C44.5298 44.9878 44.4346 45.0073 44.3174 45.022C44.2051 45.0366 44.0586 45.0439 43.8779 45.0439C43.7021 45.0439 43.5556 45.0366 43.4385 45.022C43.3213 45.0073 43.2261 44.9878 43.1528 44.9634C43.0845 44.939 43.0356 44.9072 43.0063 44.8682C42.9819 44.8291 42.9697 44.7852 42.9697 44.7363V36.2915C42.9697 36.0425 43.0356 35.8521 43.1675 35.7202C43.2993 35.5884 43.4751 35.5225 43.6948 35.5225H44.9546C45.1792 35.5225 45.3721 35.542 45.5332 35.5811C45.6943 35.6152 45.8335 35.6763 45.9507 35.7642C46.0679 35.8472 46.1655 35.9595 46.2436 36.1011C46.3218 36.2378 46.3901 36.4087 46.4487 36.6138L48.4995 42.2607H48.5288L50.6528 36.6284C50.7163 36.4233 50.7846 36.25 50.8579 36.1084C50.936 35.9668 51.0239 35.8521 51.1216 35.7642C51.2241 35.6763 51.3437 35.6152 51.4804 35.5811C51.6172 35.542 51.7759 35.5225 51.9565 35.5225H53.2529C53.3847 35.5225 53.4971 35.5396 53.5898 35.5737C53.6875 35.6079 53.7656 35.6592 53.8242 35.7275C53.8877 35.791 53.9341 35.8716 53.9634 35.9692C53.9975 36.062 54.0146 36.1694 54.0146 36.2915V44.7363ZM63.6826 36.9946C63.6826 37.1362 63.6753 37.2583 63.6606 37.3608C63.6509 37.4634 63.6338 37.5464 63.6094 37.6099C63.5898 37.6685 63.563 37.71 63.5288 37.7344C63.4995 37.7588 63.4629 37.771 63.4189 37.771C63.3554 37.771 63.2529 37.7271 63.1113 37.6392C62.9697 37.5513 62.7817 37.4561 62.5473 37.3535C62.313 37.251 62.0322 37.1558 61.7051 37.0679C61.3828 36.98 61.0068 36.936 60.5771 36.936C60.1181 36.936 59.7031 37.0166 59.332 37.1777C58.9609 37.334 58.6435 37.5586 58.3799 37.8516C58.1162 38.1396 57.9136 38.4888 57.772 38.8989C57.6304 39.3042 57.5596 39.7534 57.5596 40.2466C57.5596 40.7886 57.6304 41.2671 57.772 41.6821C57.9184 42.0923 58.1211 42.4365 58.3799 42.7148C58.6387 42.9932 58.9487 43.2031 59.31 43.3447C59.6763 43.4863 60.0791 43.5571 60.5185 43.5571C60.7334 43.5571 60.9458 43.5327 61.1557 43.4839C61.3657 43.4351 61.561 43.3618 61.7417 43.2642V41.0669H59.9472C59.8594 41.0669 59.791 41.0132 59.7422 40.9058C59.6933 40.7935 59.6689 40.6055 59.6689 40.3418C59.6689 40.2051 59.6738 40.0903 59.6836 39.9976C59.6982 39.9048 59.7178 39.8315 59.7422 39.7778C59.7666 39.7192 59.7959 39.6777 59.8301 39.6533C59.8642 39.624 59.9033 39.6094 59.9472 39.6094H63.1479C63.2261 39.6094 63.2944 39.624 63.353 39.6533C63.4165 39.6777 63.4702 39.7168 63.5141 39.7705C63.563 39.8242 63.5996 39.8901 63.624 39.9683C63.6484 40.0415 63.6606 40.127 63.6606 40.2246V43.9966C63.6606 44.1431 63.6338 44.2725 63.5801 44.3848C63.5312 44.4922 63.4263 44.5776 63.2651 44.6411C63.1089 44.7046 62.9136 44.7705 62.6792 44.8389C62.4448 44.9072 62.2007 44.9658 61.9468 45.0146C61.6977 45.0635 61.4438 45.1001 61.185 45.1245C60.9311 45.1489 60.6748 45.1611 60.416 45.1611C59.6592 45.1611 58.9804 45.0537 58.3799 44.8389C57.7842 44.6191 57.2788 44.3042 56.8638 43.894C56.4487 43.479 56.1313 42.9761 55.9116 42.3853C55.6919 41.7896 55.582 41.1157 55.582 40.3638C55.582 39.5874 55.6992 38.8916 55.9336 38.2764C56.1679 37.6562 56.5 37.1313 56.9297 36.7017C57.3594 36.2671 57.8769 35.9351 58.4824 35.7056C59.0928 35.4761 59.7715 35.3613 60.5185 35.3613C60.9287 35.3613 61.3022 35.3906 61.6391 35.4492C61.9761 35.5029 62.269 35.5713 62.518 35.6543C62.772 35.7324 62.9819 35.8179 63.1479 35.9106C63.3139 36.0034 63.4287 36.084 63.4922 36.1523C63.5605 36.2207 63.6094 36.3184 63.6387 36.4453C63.6679 36.5674 63.6826 36.7505 63.6826 36.9946ZM70.9043 38.1226C71.0019 38.1567 71.0459 38.2324 71.0361 38.3496C71.0312 38.4668 70.958 38.6475 70.8164 38.8916C70.6748 39.1357 70.5552 39.2896 70.4575 39.353C70.3598 39.4116 70.272 39.4092 70.1938 39.3457L68.7363 38.1812L69.0293 40.0195C69.0537 40.1221 69.0122 40.2002 68.9048 40.2539C68.7973 40.3076 68.602 40.3345 68.3188 40.3345C68.0356 40.3345 67.8403 40.3076 67.7329 40.2539C67.6255 40.2002 67.584 40.1221 67.6084 40.0195L67.9013 38.1812L66.4438 39.3457C66.3706 39.4092 66.2851 39.4092 66.1875 39.3457C66.0898 39.2822 65.9678 39.1284 65.8213 38.8843C65.6797 38.645 65.6064 38.4668 65.6015 38.3496C65.5967 38.2324 65.6406 38.1567 65.7334 38.1226L67.4765 37.4487L65.7334 36.7749C65.6406 36.7407 65.5967 36.665 65.6015 36.5479C65.6064 36.4307 65.6797 36.25 65.8213 36.0059C65.9629 35.7617 66.0825 35.6079 66.1802 35.5444C66.2827 35.481 66.3706 35.4834 66.4438 35.5518L67.9013 36.7163L67.6084 34.8779C67.584 34.7803 67.6255 34.7046 67.7329 34.6509C67.8403 34.5923 68.0356 34.563 68.3188 34.563C68.602 34.563 68.7973 34.5923 68.9048 34.6509C69.0122 34.7046 69.0537 34.7803 69.0293 34.8779L68.7363 36.7163L70.1938 35.5518C70.272 35.4834 70.3574 35.4834 70.4502 35.5518C70.5478 35.6152 70.6699 35.769 70.8164 36.0132C70.958 36.2524 71.0312 36.4307 71.0361 36.5479C71.0459 36.665 71.0019 36.7407 70.9043 36.7749L69.1684 37.4487L70.9043 38.1226Z" fill="white"/>
<path fill-rule="evenodd" clip-rule="evenodd" d="M49.9402 2.79842C46.507 1.63241 42.8274 1 39 1C20.2223 1 5 16.2223 5 35C5 53.7777 20.2223 69 39 69C50.6688 69 60.9646 63.1218 67.0878 54.165C60.8401 64.8344 49.2569 72 36 72C16.1177 72 0 55.8823 0 36C0 16.1177 16.1177 0 36 0C40.9426 0 45.6526 0.996069 49.9402 2.79842Z" fill="white"/>
</svg>
